<svg xmlns="http://www.w3.org/2000/svg" xmlns:xlink="http://www.w3.org/1999/xlink" width="1210" height="884.98"><rect width="1210" height="884.98" rx="5" ry="5" class="a"/><svg y="0%" x="0%"><circle cx="20" cy="20" r="6" fill="#ff5f58"/><circle cx="40" cy="20" r="6" fill="#ffbd2e"/><circle cx="60" cy="20" r="6" fill="#18c132"/></svg><svg height="824.98" viewBox="0 0 117 82.498" width="1170" x="15" xmlns="http://www.w3.org/2000/svg" xmlns:xlink="http://www.w3.org/1999/xlink" y="50"><style>@keyframes n{0%{transform:translateX(0)}.1%{transform:translateX(-117px)}1.9%{transform:translateX(-351px)}53.4%{transform:translateX(-468px)}54.4%{transform:translateX(-702px)}62.6%{transform:translateX(-819px)}63.6%{transform:translateX(-1053px)}98.5%{transform:translateX(-1170px)}}.a{fill:#282d35}.f{fill:#b9c0cb;white-space:pre}</style><g font-family="Monaco,Consolas,Menlo,'Bitstream Vera Sans Mono','Powerline Symbols',monospace" font-size="1.67"><defs><symbol id="1"><text y="1.67" class="f">Wilkommen</text><text x="10.02" y="1.67" class="f">zu</text><text x="13.026" y="1.67" class="f">ParteiDuell</text><text x="25.05" y="1.67" fill="#e88388" white-space="pre">K</text><text x="26.052" y="1.67" fill="#dbab79" white-space="pre">l</text><text x="27.054" y="1.67" fill="#a8cc8c" white-space="pre">i</text><text x="28.056" y="1.67" fill="#71bef2" white-space="pre">e</text><text x="29.058" y="1.67" fill="#d290e4" white-space="pre">h</text></symbol><symbol id="2"><text y="1.67" class="f">Dieselkraftstoff</text><text x="17.034" y="1.67" class="f">für</text><text x="21.042" y="1.67" class="f">Pkw</text><text x="25.05" y="1.67" class="f">soll</text><text x="30.06" y="1.67" class="f">höher</text><text x="36.072" y="1.67" class="f">besteuert</text><text x="46.092" y="1.67" class="f">werden.</text></symbol><symbol id="3"><text y="1.67" class="f">Die</text><text x="4.008" y="1.67" class="f">einseitige</text><text x="15.03" y="1.67" class="f">Abstellung</text><text x="26.052" y="1.67" class="f">auf</text><text x="30.06" y="1.67" class="f">Dieselkraftstoff</text><text x="47.094" y="1.67" class="f">bei</text><text x="51.102" y="1.67" class="f">PKW</text><text x="55.11" y="1.67" class="f">macht</text><text x="61.122" y="1.67" class="f">für</text><text x="65.13" y="1.67" class="f">uns</text><text x="69.138" y="1.67" class="f">█████</text><text x="75.15" y="1.67" class="f">keinen</text><text x="82.164" y="1.67" class="f">Sinn.</text><text x="88.176" y="1.67" class="f">Der</text><text x="92.184" y="1.67" class="f">Steueranteil</text><text x="105.21" y="1.67" class="f">am</text><text x="108.216" y="1.67" class="f">Kraftstof</text></symbol><symbol id="4"><text y="1.67" class="f">fpreis</text><text x="7.014" y="1.67" class="f">liegt</text><text x="13.026" y="1.67" class="f">heute</text><text x="19.038" y="1.67" class="f">bereits</text><text x="27.054" y="1.67" class="f">bei</text><text x="31.062" y="1.67" class="f">über</text><text x="36.072" y="1.67" class="f">60</text><text x="39.078" y="1.67" class="f">Prozent.</text><text x="48.096" y="1.67" class="f">Zudem</text><text x="54.108" y="1.67" class="f">ist</text><text x="58.116" y="1.67" class="f">der</text><text x="62.124" y="1.67" class="f">Anteil</text><text x="69.138" y="1.67" class="f">an</text><text x="72.144" y="1.67" class="f">der</text><text x="76.152" y="1.67" class="f">Luftbelastung</text><text x="90.18" y="1.67" class="f">durch</text><text x="96.192" y="1.67" class="f">Diesel-PKW</text><text x="107.214" y="1.67" class="f">um</text><text x="110.22" y="1.67" class="f">ein</text><text x="114.228" y="1.67" class="f">vie</text></symbol><symbol id="5"><text y="1.67" class="f">lfaches</text><text x="8.016" y="1.67" class="f">geringer</text><text x="17.034" y="1.67" class="f">als</text><text x="21.042" y="1.67" class="f">beispielsweise</text><text x="36.072" y="1.67" class="f">durch</text><text x="42.084" y="1.67" class="f">Heizungen</text><text x="52.104" y="1.67" class="f">oder</text><text x="57.114" y="1.67" class="f">auch</text><text x="62.124" y="1.67" class="f">Brems-</text><text x="69.138" y="1.67" class="f">und</text><text x="73.146" y="1.67" class="f">Reifenabrieb.</text><text x="87.174" y="1.67" class="f">Wir</text><text x="91.182" y="1.67" class="f">brauchen</text><text x="100.2" y="1.67" class="f">deshalb</text><text x="108.216" y="1.67" class="f">ein</text><text x="112.224" y="1.67" class="f">Gesam</text></symbol><symbol id="6"><text y="1.67" class="f">tkonzept</text><text x="9.018" y="1.67" class="f">statt</text><text x="15.03" y="1.67" class="f">isolierte</text><text x="25.05" y="1.67" class="f">Symbolpolitik.</text></symbol><symbol id="7"><text y="1.67" class="f">0:</text><text x="3.006" y="1.67" class="f">DIE</text><text x="7.014" y="1.67" class="f">LINKE,</text><text x="14.028" y="1.67" class="f">1:</text><text x="17.034" y="1.67" class="f">SPD,</text><text x="22.044" y="1.67" class="f">2:</text><text x="25.05" y="1.67" class="f">AfD,</text><text x="30.06" y="1.67" class="f">3:</text><text x="33.066" y="1.67" class="f">FDP</text></symbol><symbol id="8"><text y="1.67" class="f">&gt;</text></symbol><symbol id="9"><text y="1.67" class="f">&gt;</text><text x="2.004" y="1.67" class="f">3</text></symbol><symbol id="10"><text y="1.67" class="f">Press</text><text x="6.012" y="1.67" class="f">any</text><text x="10.02" y="1.67" class="f">key</text><text x="14.028" y="1.67" class="f">to</text><text x="17.034" y="1.67" class="f">continue</text><text x="26.052" y="1.67" class="f">...</text></symbol><symbol id="11"><text y="1.67" class="f">Das</text><text x="4.008" y="1.67" class="f">gegliederte</text><text x="16.032" y="1.67" class="f">Schulsystem</text><text x="28.056" y="1.67" class="f">(Haupt-</text><text x="36.072" y="1.67" class="f">/Realschulen</text><text x="49.098" y="1.67" class="f">und</text><text x="53.106" y="1.67" class="f">Gymnasien)</text><text x="64.128" y="1.67" class="f">soll</text><text x="69.138" y="1.67" class="f">beibehalten</text><text x="81.162" y="1.67" class="f">werden.</text></symbol><symbol id="12"><text y="1.67" class="f">Eine</text><text x="5.01" y="1.67" class="f">breite</text><text x="12.024" y="1.67" class="f">Förderung</text><text x="22.044" y="1.67" class="f">von</text><text x="26.052" y="1.67" class="f">individuellen</text><text x="40.08" y="1.67" class="f">Talenten,</text><text x="50.1" y="1.67" class="f">Schwächen</text><text x="60.12" y="1.67" class="f">und</text><text x="64.128" y="1.67" class="f">Neigungen</text><text x="74.148" y="1.67" class="f">von</text><text x="78.156" y="1.67" class="f">Schülern</text><text x="87.174" y="1.67" class="f">ist</text><text x="91.182" y="1.67" class="f">mit</text><text x="95.19" y="1.67" class="f">der</text><text x="99.198" y="1.67" class="f">überholten</text><text x="110.22" y="1.67" class="f">Gesamts</text></symbol><symbol id="13"><text y="1.67" class="f">chulromantik</text><text x="13.026" y="1.67" class="f">vergangener</text><text x="25.05" y="1.67" class="f">Zeiten</text><text x="32.064" y="1.67" class="f">nicht</text><text x="38.076" y="1.67" class="f">zu</text><text x="41.082" y="1.67" class="f">schaffen.</text><text x="51.102" y="1.67" class="f">Unser</text><text x="57.114" y="1.67" class="f">Schulwesen</text><text x="68.136" y="1.67" class="f">braucht</text><text x="76.152" y="1.67" class="f">mehr</text><text x="81.162" y="1.67" class="f">konstruktiven</text><text x="95.19" y="1.67" class="f">Bildungswettbewerb.</text><text x="115.23" y="1.67" class="f">Da</text></symbol><symbol id="14"><text y="1.67" class="f">s</text><text x="2.004" y="1.67" class="f">Schulsystem</text><text x="14.028" y="1.67" class="f">aus</text><text x="18.036" y="1.67" class="f">Hauptschule,</text><text x="31.062" y="1.67" class="f">Realschule</text><text x="42.084" y="1.67" class="f">und</text><text x="46.092" y="1.67" class="f">Gymnasium</text><text x="56.112" y="1.67" class="f">hat</text><text x="60.12" y="1.67" class="f">sich</text><text x="65.13" y="1.67" class="f">grundsätzlich</text><text x="79.158" y="1.67" class="f">bewährt,</text><text x="88.176" y="1.67" class="f">weil</text><text x="93.186" y="1.67" class="f">es</text><text x="96.192" y="1.67" class="f">anders</text><text x="103.206" y="1.67" class="f">als</text><text x="107.214" y="1.67" class="f">die</text><text x="111.222" y="1.67" class="f">Einhei</text></symbol><symbol id="15"><text y="1.67" class="f">tsschule</text><text x="9.018" y="1.67" class="f">auf</text><text x="13.026" y="1.67" class="f">die</text><text x="17.034" y="1.67" class="f">Vielfalt</text><text x="26.052" y="1.67" class="f">der</text><text x="30.06" y="1.67" class="f">Menschen</text><text x="39.078" y="1.67" class="f">setzt.</text><text x="46.092" y="1.67" class="f">Aber</text><text x="51.102" y="1.67" class="f">es</text><text x="54.108" y="1.67" class="f">gehört</text><text x="61.122" y="1.67" class="f">entrümpelt</text><text x="72.144" y="1.67" class="f">und</text><text x="76.152" y="1.67" class="f">erweitert,</text><text x="87.174" y="1.67" class="f">vor</text><text x="91.182" y="1.67" class="f">allem</text><text x="97.194" y="1.67" class="f">um</text><text x="100.2" y="1.67" class="f">ein</text><text x="104.208" y="1.67" class="f">besseres</text><text x="113.226" y="1.67" class="f">Ange</text></symbol><symbol id="16"><text y="1.67" class="f">bot</text><text x="4.008" y="1.67" class="f">an</text><text x="7.014" y="1.67" class="f">Ganztagsschulen.</text></symbol><symbol id="17"><text y="1.67" class="f">0:</text><text x="3.006" y="1.67" class="f">SPD,</text><text x="8.016" y="1.67" class="f">1:</text><text x="11.022" y="1.67" class="f">PIRATEN,</text><text x="20.04" y="1.67" class="f">2:</text><text x="23.046" y="1.67" class="f">FDP,</text><text x="28.056" y="1.67" class="f">3:</text><text x="31.062" y="1.67" class="f">GRÜNE</text></symbol><symbol id="18"><text y="1.67" class="f">&gt;</text><text x="2.004" y="1.67" class="f">1</text></symbol><symbol id="19"><text y="1.67" class="f">Falsch,</text><text x="8.016" y="1.67" class="f">diese</text><text x="14.028" y="1.67" class="f">Aussage</text><text x="22.044" y="1.67" class="f">war</text><text x="26.052" y="1.67" class="f">von</text><text x="30.06" y="1.67" class="f">FDP</text></symbol><symbol id="20"><text y="1.67" class="f">Die</text><text x="4.008" y="1.67" class="f">Partei</text><text x="11.022" y="1.67" class="f">PIRATEN</text><text x="19.038" y="1.67" class="f">hat</text><text x="23.046" y="1.67" class="f">folgendes</text><text x="33.066" y="1.67" class="f">Statement</text><text x="43.086" y="1.67" class="f">abgegeben:</text></symbol><symbol id="a"><path fill="transparent" d="M0 0h117v38H0z"/></symbol><symbol id="b"><path fill="#6f7683" d="M0 0h1.102v2.171H0z"/></symbol></defs><path class="a" d="M0 0h117v82.498H0z"/><g style="animation-duration:13.211444s;animation-iteration-count:infinite;animation-name:n;animation-timing-function:steps(1,end)"><svg width="1638"><svg><use xlink:href="#a"/><use xlink:href="#b" x="-.004"/></svg><svg x="117"><use xlink:href="#a"/><use xlink:href="#b" x="-.004" y="4.317"/><use xlink:href="#1"/></svg><svg x="234"><use xlink:href="#a"/><use xlink:href="#b" x="-.004" y="8.659"/><use xlink:href="#1"/><use xlink:href="#2" y="4.342"/></svg><svg x="351"><use xlink:href="#a"/><use xlink:href="#b" x="1.996" y="19.514"/><use xlink:href="#1"/><use xlink:href="#2" y="4.342"/><use xlink:href="#3" y="8.684"/><use xlink:href="#4" y="10.855"/><use xlink:href="#5" y="13.026"/><use xlink:href="#6" y="15.197"/><use xlink:href="#7" y="17.368"/><use xlink:href="#8" y="19.539"/></svg><svg x="468"><use xlink:href="#a"/><use xlink:href="#b" x="2.996" y="19.514"/><use xlink:href="#1"/><use xlink:href="#2" y="4.342"/><use xlink:href="#3" y="8.684"/><use xlink:href="#4" y="10.855"/><use xlink:href="#5" y="13.026"/><use xlink:href="#6" y="15.197"/><use xlink:href="#7" y="17.368"/><use xlink:href="#9" y="19.539"/></svg><svg x="585"><use xlink:href="#a"/><use xlink:href="#b" x="-.004" y="21.685"/><use xlink:href="#1"/><use xlink:href="#2" y="4.342"/><use xlink:href="#3" y="8.684"/><use xlink:href="#4" y="10.855"/><use xlink:href="#5" y="13.026"/><use xlink:href="#6" y="15.197"/><use xlink:href="#7" y="17.368"/><use xlink:href="#9" y="19.539"/></svg><svg x="702"><use xlink:href="#a"/><use xlink:href="#b" x="28.996" y="30.369"/><use xlink:href="#1"/><use xlink:href="#2" y="4.342"/><use xlink:href="#3" y="8.684"/><use xlink:href="#4" y="10.855"/><use xlink:href="#5" y="13.026"/><use xlink:href="#6" y="15.197"/><use xlink:href="#7" y="17.368"/><use xlink:href="#9" y="19.539"/><text y="27.722" class="f">Richtig!</text><use xlink:href="#10" y="30.394"/></svg><svg x="819"><use xlink:href="#a"/><use xlink:href="#b" x="-.004" y="4.317"/><use xlink:href="#1"/></svg><svg x="936"><use xlink:href="#a"/><use xlink:href="#b" x="-.004" y="8.659"/><use xlink:href="#1"/><use xlink:href="#11" y="4.342"/></svg><svg x="1053"><use xlink:href="#a"/><use xlink:href="#b" x="1.996" y="21.685"/><use xlink:href="#1"/><use xlink:href="#11" y="4.342"/><use xlink:href="#12" y="8.684"/><use xlink:href="#13" y="10.855"/><use xlink:href="#14" y="13.026"/><use xlink:href="#15" y="15.197"/><use xlink:href="#16" y="17.368"/><use xlink:href="#17" y="19.539"/><use xlink:href="#8" y="21.71"/></svg><svg x="1170"><use xlink:href="#a"/><use xlink:href="#b" x="2.996" y="21.685"/><use xlink:href="#1"/><use xlink:href="#11" y="4.342"/><use xlink:href="#12" y="8.684"/><use xlink:href="#13" y="10.855"/><use xlink:href="#14" y="13.026"/><use xlink:href="#15" y="15.197"/><use xlink:href="#16" y="17.368"/><use xlink:href="#17" y="19.539"/><use xlink:href="#18" y="21.71"/></svg><svg x="1287"><use xlink:href="#a"/><use xlink:href="#b" x="-.004" y="23.856"/><use xlink:href="#1"/><use xlink:href="#11" y="4.342"/><use xlink:href="#12" y="8.684"/><use xlink:href="#13" y="10.855"/><use xlink:href="#14" y="13.026"/><use xlink:href="#15" y="15.197"/><use xlink:href="#16" y="17.368"/><use xlink:href="#17" y="19.539"/><use xlink:href="#18" y="21.71"/></svg><svg x="1404"><use xlink:href="#a"/><use xlink:href="#b" x="-.004" y="36.882"/><use xlink:href="#1"/><use xlink:href="#11" y="4.342"/><use xlink:href="#12" y="8.684"/><use xlink:href="#13" y="10.855"/><use xlink:href="#14" y="13.026"/><use xlink:href="#15" y="15.197"/><use xlink:href="#16" y="17.368"/><use xlink:href="#17" y="19.539"/><use xlink:href="#18" y="21.71"/><use xlink:href="#19" y="28.223"/><use xlink:href="#20" y="32.565"/></svg><svg x="1521"><use xlink:href="#a"/><use xlink:href="#b" x="28.996" y="47.737"/><use xlink:href="#1"/><use xlink:href="#11" y="4.342"/><use xlink:href="#12" y="8.684"/><use xlink:href="#13" y="10.855"/><use xlink:href="#14" y="13.026"/><use xlink:href="#15" y="15.197"/><use xlink:href="#16" y="17.368"/><use xlink:href="#17" y="19.539"/><use xlink:href="#18" y="21.71"/><use xlink:href="#19" y="28.223"/><use xlink:href="#20" y="32.565"/><text x="4.008" y="38.577" class="f">Die</text><text x="8.016" y="38.577" class="f">strikte</text><text x="16.032" y="38.577" class="f">Trennung</text><text x="25.05" y="38.577" class="f">wird</text><text x="30.06" y="38.577" class="f">in</text><text x="33.066" y="38.577" class="f">unseren</text><text x="41.082" y="38.577" class="f">Augen</text><text x="47.094" y="38.577" class="f">den</text><text x="51.102" y="38.577" class="f">individuellen</text><text x="65.13" y="38.577" class="f">Stärken</text><text x="73.146" y="38.577" class="f">und</text><text x="77.154" y="38.577" class="f">Schwächen</text><text x="87.174" y="38.577" class="f">der</text><text x="91.182" y="38.577" class="f">Schüler</text><text x="99.198" y="38.577" class="f">nicht</text><text x="105.21" y="38.577" class="f">gerecht</text><text x="113.226" y="38.577" class="f">und</text><text x="4.008" y="40.748" class="f">drängt</text><text x="11.022" y="40.748" class="f">diese</text><text x="17.034" y="40.748" class="f">schon</text><text x="23.046" y="40.748" class="f">früh</text><text x="28.056" y="40.748" class="f">in</text><text x="31.062" y="40.748" class="f">eine</text><text x="36.072" y="40.748" class="f">bestimme</text><text x="45.09" y="40.748" class="f">Richtung.</text><text x="55.11" y="40.748" class="f">Die</text><text x="59.118" y="40.748" class="f">Trennung</text><text x="68.136" y="40.748" class="f">muss</text><text x="73.146" y="40.748" class="f">deswegen</text><text x="82.164" y="40.748" class="f">deutlich</text><text x="91.182" y="40.748" class="f">weicher</text><text x="99.198" y="40.748" class="f">gestaltet</text><text x="109.218" y="40.748" class="f">werden.</text><text x="4.008" y="42.919" class="f">Diese</text><text x="10.02" y="42.919" class="f">Aussage</text><text x="18.036" y="42.919" class="f">ist</text><text x="22.044" y="42.919" class="f">eine</text><text x="27.054" y="42.919" class="f">Mehrheitsaussage</text><text x="44.088" y="42.919" class="f">der</text><text x="48.096" y="42.919" class="f">Bundestagskandidaten</text><text x="4.008" y="45.09" class="f">(http://wiki.piratenpartei.de/Aussagenhierarchie)</text><use xlink:href="#10" y="47.762"/></svg></svg></g></g></svg></svg>